HIERARCHY
ROOT Hips
{
	OFFSET 0.00000 0.00000 0.00000
	CHANNELS 6 Xposition Yposition Zposition Zrotation Yrotation Xrotation 
	JOINT LHipJoint
	{
		OFFSET 0 0 0
		CHANNELS 3 Zrotation Yrotation Xrotation
		JOINT LeftUpLeg
		{
			OFFSET 1.37590 -1.78394 0.89329
			CHANNELS 3 Zrotation Yrotation Xrotation
			JOINT LeftLeg
			{
				OFFSET 2.47928 -6.81178 0.00000
				CHANNELS 3 Zrotation Yrotation Xrotation
				JOINT LeftFoot
				{
					OFFSET 2.63345 -7.23535 0.00000
					CHANNELS 3 Zrotation Yrotation Xrotation
					JOINT LeftToeBase
					{
						OFFSET 0.23938 -0.65768 2.27012
						CHANNELS 3 Zrotation Yrotation Xrotation
						End Site
						{
							OFFSET 0.00000 -0.00000 1.18363
						}
					}
				}
			}
		}
	}
	JOINT RHipJoint
	{
		OFFSET 0 0 0
		CHANNELS 3 Zrotation Yrotation Xrotation
		JOINT RightUpLeg
		{
			OFFSET -1.33617 -1.78394 0.89329
			CHANNELS 3 Zrotation Yrotation Xrotation
			JOINT RightLeg
			{
				OFFSET -2.56922 -7.05888 0.00000
				CHANNELS 3 Zrotation Yrotation Xrotation
				JOINT RightFoot
				{
					OFFSET -2.56568 -7.04915 0.00000
					CHANNELS 3 Zrotation Yrotation Xrotation
					JOINT RightToeBase
					{
						OFFSET -0.27533 -0.75646 2.18105
						CHANNELS 3 Zrotation Yrotation Xrotation
						End Site
						{
							OFFSET -0.00000 -0.00000 1.15233
						}
					}
				}
			}
		}
	}
	JOINT LowerBack
	{
		OFFSET 0 0 0
		CHANNELS 3 Zrotation Yrotation Xrotation
		JOINT Spine
		{
			OFFSET 0.06190 2.15152 -0.00935
			CHANNELS 3 Zrotation Yrotation Xrotation
			JOINT Spine1
			{
				OFFSET 0.06334 2.15332 0.00872
				CHANNELS 3 Zrotation Yrotation Xrotation
				JOINT Neck
				{
					OFFSET 0 0 0
					CHANNELS 3 Zrotation Yrotation Xrotation
					JOINT Neck1
					{
						OFFSET -0.04202 1.66908 0.23524
						CHANNELS 3 Zrotation Yrotation Xrotation
						JOINT Head
						{
							OFFSET 0.07510 1.69357 -0.24440
							CHANNELS 3 Zrotation Yrotation Xrotation
							End Site
							{
								OFFSET 0.02556 1.71719 -0.11000
							}
						}
					}
				}
				JOINT LeftShoulder
				{
					OFFSET 0 0 0
					CHANNELS 3 Zrotation Yrotation Xrotation
					JOINT LeftArm
					{
						OFFSET 3.67168 1.26306 -0.41342
						CHANNELS 3 Zrotation Yrotation Xrotation
						JOINT LeftForeArm
						{
							OFFSET 4.68510 -0.00000 -0.00000
							CHANNELS 3 Zrotation Yrotation Xrotation
							JOINT LeftHand
							{
								OFFSET 3.39626 -0.00000 -0.00000
								CHANNELS 3 Zrotation Yrotation Xrotation
								JOINT LeftFingerBase
								{
									OFFSET 0 0 0
									CHANNELS 3 Zrotation Yrotation Xrotation
									JOINT LeftHandIndex1
									{
										OFFSET 0.48608 -0.00000 -0.00000
										CHANNELS 3 Zrotation Yrotation Xrotation
										End Site
										{
											OFFSET 0.39189 -0.00000 -0.00000
										}
									}
								}
								JOINT LThumb
								{
									OFFSET 0 0 0
									CHANNELS 3 Zrotation Yrotation Xrotation
									End Site
									{
										OFFSET 0.39787 -0.00000 0.39787
									}
								}
							}
						}
					}
				}
				JOINT RightShoulder
				{
					OFFSET 0 0 0
					CHANNELS 3 Zrotation Yrotation Xrotation
					JOINT RightArm
					{
						OFFSET -3.04136 1.42992 -0.76390
						CHANNELS 3 Zrotation Yrotation Xrotation
						JOINT RightForeArm
						{
							OFFSET -5.55576 -0.00000 -0.00000
							CHANNELS 3 Zrotation Yrotation Xrotation
							JOINT RightHand
							{
								OFFSET -3.32774 -0.00000 -0.00000
								CHANNELS 3 Zrotation Yrotation Xrotation
								JOINT RightFingerBase
								{
									OFFSET 0 0 0
									CHANNELS 3 Zrotation Yrotation Xrotation
									JOINT RightHandIndex1
									{
										OFFSET -0.50763 -0.00000 -0.00000
										CHANNELS 3 Zrotation Yrotation Xrotation
										End Site
										{
											OFFSET -0.40926 -0.00000 -0.00000
										}
									}
								}
								JOINT RThumb
								{
									OFFSET 0 0 0
									CHANNELS 3 Zrotation Yrotation Xrotation
									End Site
									{
										OFFSET -0.41551 -0.00000 0.41551
									}
								}
							}
						}
					}
				}
			}
		}
	}
}
MOTION
Frames: 15
Frame Time: .0083333
33.3283 17.6784 6.7659 0 0 0 0 0 0 -21 0 0 0 0 0 0 0 0 0 0 0 0 0 0 21 0 0 0 0 0 0 0 0 0 0 0 0 0 0 0 0 0 0 0 0 0 0 -16 0 0 21 0 0 11 0 0 0 -8 0 0 0 0 0 0 0 0 0 0 0 0 0 0 0 0 0 0 0 0 8 0 0 0 0 0 0 0 0 0 0 0 0 0 0 0 0 0
33.3283 17.6784 6.7659 -95.6326 -88.3444 101.7770 0.0000 0.0000 0.0000 -21.7812 -4.7033 -1.7358 0.4093 4.1069 11.3777 0.3553 -4.9008 -10.6439 0.0180 -0.8656 -2.3792 0.0000 0.0000 0.0000 17.5264 4.5929 -35.3198 -7.2134 -15.5090 49.6769 0.6307 -15.7603 -13.8097 -0.1222 -2.2534 6.2066 -1.7851 -1.8027 -0.6348 1.6252 -2.4205 -2.5024 2.6952 -1.1716 -2.0684 -4.2249 -2.4242 -11.9295 1.2963 -2.7471 12.2882 0.8632 -1.4524 5.7512 0.0000 0.0000 0.0000 -87.0236 -28.2654 16.9147 44.5443 -50.5432 -21.8863 -0.0000 0.0000 -62.9673 21.2128 42.7664 14.7643 -7.1250 0.0000 -0.0000 -27.2413 73.2145 -18.5751 0.0000 0.0000 0.0000 66.3751 23.6956 32.9302 -71.0028 58.5915 -43.6257 0.0000 -0.0000 -2.9839 -13.5973 -31.3883 7.1801 7.1250 -0.0000 -0.0000 21.2465 -60.8315 -8.4155
33.2033 17.6642 6.7736 -95.2156 -88.4488 101.4770 0.0000 0.0000 0.0000 -21.9712 -4.5556 -1.4378 0.4102 4.1114 11.3902 0.3798 -5.1107 -11.0091 0.0178 -0.8624 -2.3704 0.0000 0.0000 0.0000 17.4556 4.7976 -35.7315 -6.6056 -14.9906 47.3666 0.6906 -16.2072 -13.7347 -0.0953 -1.9912 5.4814 -1.8350 -1.7685 -0.6331 1.5775 -2.3700 -2.1649 2.6657 -1.1513 -1.7250 -4.0467 -2.6200 -13.3819 1.3551 -2.9717 12.1316 0.8182 -1.5347 5.9509 0.0000 0.0000 0.0000 -87.2404 -29.6451 16.9730 42.2206 -49.3318 -20.1077 -0.0000 0.0000 -61.0379 20.5430 40.3598 13.6407 -7.1250 0.0000 -0.0000 -23.6409 70.9375 -14.8853 0.0000 0.0000 0.0000 66.6045 24.2410 32.7197 -70.1075 58.4507 -42.8622 0.0000 -0.0000 -3.2000 -14.5648 -30.9687 7.6152 7.1250 -0.0000 -0.0000 19.8767 -60.6739 -7.7722
33.0768 17.6500 6.7779 -94.4960 -88.5296 100.9070 0.0000 0.0000 0.0000 -22.0968 -4.4116 -1.1537 0.4099 4.1100 11.3864 0.4028 -5.3118 -11.3442 0.0133 -0.7455 -2.0489 0.0000 0.0000 0.0000 17.4068 5.0798 -36.0199 -5.9872 -14.4159 44.9301 0.7185 -16.4542 -13.8206 -0.1154 -2.1902 6.0316 -1.9882 -1.8361 -0.5721 1.6641 -2.4644 -2.3848 2.8488 -1.1910 -1.9703 -4.1409 -2.6193 -12.8110 1.4165 -2.9798 11.4794 0.8615 -1.5358 5.6517 -0.0000 -0.0000 0.0000 -87.3778 -29.3305 17.1752 40.7657 -48.5171 -19.0109 -0.0000 0.0000 -59.1002 21.0369 45.9205 15.4449 -7.1250 0.0000 -0.0000 -35.1605 75.6006 -25.9844 -0.0000 -0.0000 0.0000 66.9685 23.7038 33.0745 -69.7436 58.3914 -42.5522 0.0000 -0.0000 -3.1575 -15.2504 -30.3773 7.8499 7.1250 -0.0000 -0.0000 18.6875 -60.2814 -7.1121
32.9466 17.6334 6.7828 -91.0108 -88.6366 97.6270 0.0000 0.0000 0.0000 -22.2424 -4.2417 -0.9535 0.4106 4.1134 11.3959 0.4232 -5.5699 -11.6417 0.0116 -0.6969 -1.9153 0.0000 0.0000 0.0000 17.3468 5.2262 -36.2125 -5.3298 -13.7459 42.2289 0.7571 -16.5804 -13.3191 -0.1362 -2.3790 6.5542 -2.0862 -1.8503 -0.5144 1.6792 -2.4847 -2.3999 2.9221 -1.1984 -2.0123 -4.2272 -2.7523 -13.1455 1.6110 -3.1450 11.0415 0.9204 -1.5985 5.5789 -0.0000 0.0000 0.0000 -87.5114 -29.2787 17.6442 40.1031 -48.1308 -18.5159 -0.0000 0.0000 -57.0097 21.5326 44.5891 15.4824 -7.1250 0.0000 -0.0000 -31.0087 74.7921 -22.2754 -0.0000 0.0000 0.0000 67.3676 23.4253 32.7613 -69.8379 58.4069 -42.6325 0.0000 -0.0000 -2.8526 -16.0620 -30.4190 8.2940 7.1250 -0.0000 -0.0000 17.8479 -60.5138 -6.8793
32.8168 17.6174 6.7872 -87.7736 -88.7179 94.5813 0.0000 0.0000 0.0000 -22.3650 -4.0946 -0.7202 0.4107 4.1140 11.3977 0.4459 -5.8088 -11.9597 0.0098 -0.6394 -1.7570 0.0000 0.0000 0.0000 17.2999 5.4388 -36.4018 -4.7121 -13.0520 39.5635 0.8019 -16.7643 -12.8059 -0.1481 -2.4803 6.8351 -2.1980 -1.8794 -0.4586 1.7314 -2.5257 -2.4615 3.0426 -1.2146 -2.0977 -4.3145 -2.8424 -13.2705 1.7585 -3.2551 10.5381 0.9721 -1.6396 5.4486 -0.0000 0.0000 0.0000 -87.7132 -29.1981 17.9319 39.2876 -47.6421 -17.9110 -0.0000 0.0000 -55.1898 21.7297 44.8979 15.7120 -7.1250 0.0000 -0.0000 -31.5587 75.1047 -22.8890 -0.0000 0.0000 0.0000 67.7150 23.1018 32.6057 -69.8452 58.4081 -42.6387 0.0000 -0.0000 -2.7708 -16.8397 -30.3207 8.6877 7.1250 -0.0000 -0.0000 16.9349 -60.6061 -6.5524
32.6850 17.6006 6.7909 -83.3165 -88.7850 90.3350 0.0000 0.0000 0.0000 -22.4696 -3.9595 -0.4969 0.4107 4.1139 11.3974 0.4688 -6.0537 -12.2761 0.0082 -0.5858 -1.6097 0.0000 0.0000 0.0000 17.2630 5.6627 -36.5176 -4.1029 -12.2961 36.7877 0.8494 -16.9193 -12.0587 -0.1620 -2.5934 7.1488 -2.2858 -1.9166 -0.4843 1.7758 -2.5759 -2.5024 3.1381 -1.2373 -2.1165 -4.4076 -2.9228 -13.3169 1.9336 -3.3570 9.9481 1.0356 -1.6756 5.2790 -0.0000 0.0000 0.0000 -87.8947 -28.9922 18.2128 38.8367 -47.3654 -17.5786 -0.0000 0.0000 -53.6531 21.9357 45.0147 15.8991 -7.1250 0.0000 -0.0000 -31.6154 75.2725 -23.0397 -0.0000 0.0000 0.0000 68.0920 22.7634 32.3488 -70.0500 58.4414 -42.8132 0.0000 -0.0000 -2.7420 -17.5624 -30.3508 9.0860 7.1250 -0.0000 -0.0000 16.1706 -60.8091 -6.3256
32.5511 17.5832 6.7939 -77.6855 -88.8363 84.9296 0.0000 0.0000 0.0000 -22.5616 -3.8317 -0.2757 0.4101 4.1111 11.3894 0.4920 -6.3036 -12.5892 0.0070 -0.5406 -1.4856 0.0000 0.0000 0.0000 17.2276 5.9154 -36.5530 -3.5112 -11.4799 33.9161 0.8969 -17.0541 -11.0913 -0.1741 -2.6879 7.4110 -2.3516 -1.9565 -0.5973 1.8094 -2.6276 -2.4902 3.2052 -1.2633 -2.0325 -4.4979 -3.0032 -13.4076 2.1323 -3.4593 9.3194 1.1055 -1.7103 5.1056 -0.0000 0.0000 0.0000 -88.0815 -28.7783 18.4367 38.6749 -47.2649 -17.4596 -0.0000 0.0000 -52.4734 22.0550 44.6769 15.9001 -7.1250 0.0000 -0.0000 -30.5943 75.0577 -22.1311 -0.0000 0.0000 0.0000 68.4780 22.4790 31.9744 -70.3961 58.4969 -43.1082 0.0000 -0.0000 -2.8255 -18.2317 -30.4939 9.4894 7.1250 -0.0000 -0.0000 15.5404 -61.1101 -6.1833
32.4148 17.5650 6.7961 -70.9215 -88.8660 78.4014 0.0000 0.0000 0.0000 -22.6396 -3.7032 -0.0537 0.4092 4.1065 11.3766 0.5154 -6.5585 -12.8994 0.0060 -0.5005 -1.3754 0.0000 0.0000 0.0000 17.1803 6.2244 -36.4963 -2.9488 -10.6117 30.9814 0.9355 -17.1502 -10.0206 -0.1869 -2.7840 7.6780 -2.3948 -2.0002 -0.7649 1.8317 -2.6828 -2.4532 3.2449 -1.2929 -1.8934 -4.5705 -3.0780 -13.5065 2.3348 -3.5568 8.6725 1.1741 -1.7429 4.9282 -0.0000 0.0000 0.0000 -88.2665 -28.5048 18.6035 38.7812 -47.3310 -17.5377 -0.0000 0.0000 -51.7100 22.0335 44.3106 15.7859 -7.1250 0.0000 -0.0000 -29.7053 74.7627 -21.2830 -0.0000 0.0000 0.0000 68.8704 22.2027 31.5226 -70.8633 58.5700 -43.5067 0.0000 -0.0000 -3.0491 -18.8151 -30.7074 9.8701 7.1250 -0.0000 -0.0000 15.0505 -61.4604 -6.1084
32.2760 17.5461 6.7977 -63.3797 -88.8767 71.0991 0.0000 0.0000 0.0000 -22.7080 -3.5414 0.1671 0.4078 4.0994 11.3565 0.5382 -6.8318 -13.2003 0.0049 -0.4535 -1.2460 0.0000 0.0000 0.0000 17.0997 6.6101 -36.3394 -2.4262 -9.7025 28.0186 0.9598 -17.1911 -8.9626 -0.1943 -2.8389 7.8304 -2.4252 -2.0460 -0.9647 1.8412 -2.7401 -2.4070 3.2622 -1.3245 -1.7277 -4.6262 -3.1450 -13.6001 2.5370 -3.6468 8.0384 1.2406 -1.7726 4.7540 0.0000 -0.0000 0.0000 -88.4530 -28.1825 18.6960 39.0919 -47.5226 -17.7665 -0.0000 0.0000 -51.3112 21.8602 43.9488 15.5589 -7.1250 0.0000 -0.0000 -29.0505 74.4109 -20.5849 0.0000 -0.0000 0.0000 69.2676 21.9140 31.0206 -71.4026 58.6519 -43.9671 0.0000 -0.0000 -3.3935 -19.3157 -30.9605 10.2215 7.1250 -0.0000 -0.0000 14.6780 -61.8313 -6.0825
32.1345 17.5265 6.7985 -55.2172 -88.8640 63.1754 0.0000 0.0000 0.0000 -22.7659 -3.3316 0.3865 0.4056 4.0884 11.3256 0.5593 -7.1264 -13.4805 0.0038 -0.3994 -1.0974 0.0000 0.0000 0.0000 16.9673 7.0935 -36.0786 -1.9534 -8.7683 25.0730 0.9667 -17.1579 -8.0620 -0.1926 -2.8260 7.7946 -2.4574 -2.0945 -1.1186 1.8499 -2.8025 -2.4074 3.2826 -1.3570 -1.6353 -4.6753 -3.2000 -13.6528 2.7243 -3.7227 7.4682 1.3028 -1.7977 4.5927 -0.0000 0.0000 0.0000 -88.6627 -27.7634 18.7096 39.5448 -47.7979 -18.1013 -0.0000 0.0000 -51.1771 21.5682 43.6325 15.2568 -7.1250 0.0000 -0.0000 -28.6807 74.0495 -20.0979 -0.0000 0.0000 0.0000 69.6535 21.5305 30.5094 -71.9943 58.7388 -44.4727 0.0000 -0.0000 -3.8313 -19.7216 -31.2255 10.5276 7.1250 -0.0000 -0.0000 14.4183 -62.1917 -6.0952
31.9905 17.5062 6.7987 -46.7758 -88.8279 54.9676 0.0000 0.0000 0.0000 -22.8202 -3.0779 0.6116 0.4028 4.0746 11.2865 0.5785 -7.4402 -13.7397 0.0025 -0.3247 -0.8922 0.0000 0.0000 0.0000 16.7624 7.6920 -35.7151 -1.5367 -7.8259 22.1864 0.9565 -17.0326 -7.4308 -0.1763 -2.7050 7.4585 -2.5019 -2.1435 -1.2129 1.8610 -2.8674 -2.4630 3.3163 -1.3886 -1.6323 -4.7241 -3.2445 -13.6652 2.8956 -3.7853 6.9837 1.3611 -1.8186 4.4511 -0.0000 0.0000 0.0000 -88.8980 -27.2665 18.6632 40.0737 -48.1135 -18.4941 -0.0000 0.0000 -51.1920 21.2670 43.3999 14.9721 -7.1250 0.0000 -0.0000 -28.5312 73.7516 -19.8120 -0.0000 0.0000 0.0000 70.0145 21.0373 29.9946 -72.5948 58.8238 -44.9862 0.0000 -0.0000 -4.3069 -20.0665 -31.4822 10.8002 7.1250 -0.0000 -0.0000 14.2209 -62.5300 -6.1233
31.8439 17.4853 6.7980 -38.4742 -88.7663 46.8909 0.0000 0.0000 0.0000 -22.8717 -2.7935 0.8487 0.3996 4.0587 11.2417 0.5957 -7.7632 -13.9769 0.0013 -0.2328 -0.6397 0.0000 0.0000 0.0000 16.4837 8.3964 -35.2679 -1.1807 -6.8961 19.4080 0.9291 -16.7880 -7.1307 -0.1441 -2.4465 6.7413 -2.5545 -2.1970 -1.2924 1.8696 -2.9392 -2.5499 3.3533 -1.4226 -1.6689 -4.7643 -3.2772 -13.6021 3.0472 -3.8351 6.5509 1.4136 -1.8355 4.3129 0.0000 -0.0000 0.0000 -89.1295 -26.7423 18.5632 40.6204 -48.4332 -18.9021 -0.0000 0.0000 -51.2548 21.0044 43.2539 14.7403 -7.1250 0.0000 -0.0000 -28.5340 73.5380 -19.6867 0.0000 -0.0000 0.0000 70.3609 20.4756 29.4783 -73.1454 58.8989 -45.4575 0.0000 -0.0000 -4.7711 -20.3658 -31.7051 11.0393 7.1250 -0.0000 -0.0000 14.0496 -62.8248 -6.1455
31.6949 17.4638 6.7965 -30.7276 -88.6778 39.3572 0.0000 0.0000 0.0000 -22.9213 -2.5001 1.1077 0.3964 4.0425 11.1962 0.6109 -8.0823 -14.1925 0.0004 -0.1359 -0.3735 0.0000 0.0000 0.0000 16.1313 9.2058 -34.7583 -0.8901 -6.0136 16.8238 0.8847 -16.4127 -7.2728 -0.1043 -2.0824 5.7336 -2.6356 -2.2483 -1.3284 1.8939 -3.0093 -2.6738 3.4256 -1.4538 -1.7660 -4.8235 -3.3081 -13.5222 3.1794 -3.8787 6.2196 1.4634 -1.8514 4.2033 -0.0000 -0.0000 0.0000 -89.3876 -26.2116 18.4417 41.1334 -48.7272 -19.2868 -0.0000 0.0000 -51.2744 20.7807 43.1900 14.5593 -7.1250 0.0000 -0.0000 -28.6693 73.4053 -19.7044 -0.0000 -0.0000 0.0000 70.6547 19.8428 28.9445 -73.6093 58.9601 -45.8548 0.0000 -0.0000 -5.1777 -20.6563 -31.8842 11.2621 7.1250 -0.0000 -0.0000 13.8544 -63.0754 -6.1399
31.5438 17.4419 6.7940 -23.8243 -88.5591 32.6525 0.0000 0.0000 0.0000 -22.9670 -2.2316 1.3910 0.3944 4.0325 11.1680 0.6250 -8.3853 -14.3936 0.0001 -0.0504 -0.1385 0.0000 0.0000 0.0000 15.7363 10.0622 -34.2477 -0.6640 -5.2113 14.5121 0.8257 -15.9332 -7.7771 -0.0603 -1.5841 4.3575 -2.7140 -2.3024 -1.3897 1.9126 -3.0829 -2.7941 3.4892 -1.4871 -1.8451 -4.8692 -3.3334 -13.3957 3.2890 -3.9172 5.9321 1.5048 -1.8665 4.0992 0.0000 -0.0000 0.0000 -89.5990 -25.6964 18.3316 41.6004 -48.9900 -19.6385 -0.0000 0.0000 -51.2011 20.5573 43.1543 14.3864 -7.1250 0.0000 -0.0000 -28.8647 73.2957 -19.7782 0.0000 -0.0000 0.0000 70.9349 19.1992 28.3881 -73.9345 59.0019 -46.1335 0.0000 -0.0000 -5.4855 -20.9322 -31.9979 11.4578 7.1250 -0.0000 -0.0000 13.6245 -63.2591 -6.0948
